<?xml version="1.0" encoding="UTF-8" standalone="no"?>
<!DOCTYPE svg PUBLIC "-//W3C//DTD SVG 1.1//EN"
 "http://www.w3.org/Graphics/SVG/1.1/DTD/svg11.dtd">
<!-- Generated by graphviz version 2.43.0 (0)
 -->
<!-- Title: G Pages: 1 -->
<svg width="1448pt" height="427pt"
 viewBox="0.00 0.00 1447.70 426.64" xmlns="http://www.w3.org/2000/svg" xmlns:xlink="http://www.w3.org/1999/xlink">
<g id="graph0" class="graph" transform="scale(1 1) rotate(0) translate(4 422.64)">
<title>G</title>
<polygon fill="white" stroke="transparent" points="-4,4 -4,-422.64 1443.7,-422.64 1443.7,4 -4,4"/>
<!-- glxgears -->
<g id="node1" class="node">
<title>glxgears</title>
<ellipse fill="none" stroke="black" cx="50.7" cy="-119.28" rx="50.89" ry="18"/>
<text text-anchor="middle" x="50.7" y="-115.58" font-family="Times,serif" font-size="14.00">glxgears</text>
</g>
<!-- libGL.so.1 -->
<g id="node2" class="node">
<title>libGL.so.1</title>
<ellipse fill="none" stroke="black" cx="195.24" cy="-348.28" rx="57.69" ry="18"/>
<text text-anchor="middle" x="195.24" y="-344.58" font-family="Times,serif" font-size="14.00">libGL.so.1</text>
</g>
<!-- glxgears&#45;&gt;libGL.so.1 -->
<g id="edge1" class="edge">
<title>glxgears&#45;&gt;libGL.so.1</title>
<path fill="none" stroke="black" d="M62.64,-136.87C87.52,-176.83 148.4,-274.64 177.81,-321.89"/>
<polygon fill="black" stroke="black" points="174.99,-323.99 183.25,-330.63 180.94,-320.29 174.99,-323.99"/>
</g>
<!-- libX11.so.6 -->
<g id="node3" class="node">
<title>libX11.so.6</title>
<ellipse fill="none" stroke="black" cx="549.31" cy="-262.28" rx="62.29" ry="18"/>
<text text-anchor="middle" x="549.31" y="-258.58" font-family="Times,serif" font-size="14.00">libX11.so.6</text>
</g>
<!-- glxgears&#45;&gt;libX11.so.6 -->
<g id="edge2" class="edge">
<title>glxgears&#45;&gt;libX11.so.6</title>
<path fill="none" stroke="black" d="M90.66,-130.5C178.96,-155.92 394.38,-217.95 494.95,-246.91"/>
<polygon fill="black" stroke="black" points="494.03,-250.29 504.61,-249.69 495.97,-243.56 494.03,-250.29"/>
</g>
<!-- libm.so.6 -->
<g id="node4" class="node">
<title>libm.so.6</title>
<ellipse fill="none" stroke="black" cx="352.78" cy="-94.28" rx="53.09" ry="18"/>
<text text-anchor="middle" x="352.78" y="-90.58" font-family="Times,serif" font-size="14.00">libm.so.6</text>
</g>
<!-- glxgears&#45;&gt;libm.so.6 -->
<g id="edge3" class="edge">
<title>glxgears&#45;&gt;libm.so.6</title>
<path fill="none" stroke="black" d="M100.24,-115.23C152.09,-110.91 234.37,-104.06 290.6,-99.37"/>
<polygon fill="black" stroke="black" points="291.11,-102.84 300.79,-98.53 290.53,-95.87 291.11,-102.84"/>
</g>
<!-- libc.so.6 -->
<g id="node5" class="node">
<title>libc.so.6</title>
<ellipse fill="none" stroke="black" cx="1390.3" cy="-213.28" rx="49.29" ry="18"/>
<text text-anchor="middle" x="1390.3" y="-209.58" font-family="Times,serif" font-size="14.00">libc.so.6</text>
</g>
<!-- glxgears&#45;&gt;libc.so.6 -->
<g id="edge4" class="edge">
<title>glxgears&#45;&gt;libc.so.6</title>
<path fill="none" stroke="black" d="M75.84,-103.47C125.39,-72.6 243.06,-7.28 351.78,-7.28 351.78,-7.28 351.78,-7.28 1089.87,-7.28 1186.25,-7.28 1226.96,21.41 1304.91,-35.28 1354.8,-71.56 1376.28,-145.09 1384.62,-185.36"/>
<polygon fill="black" stroke="black" points="1381.21,-186.16 1386.55,-195.31 1388.08,-184.82 1381.21,-186.16"/>
</g>
<!-- libGL.so.1&#45;&gt;libc.so.6 -->
<g id="edge7" class="edge">
<title>libGL.so.1&#45;&gt;libc.so.6</title>
<path fill="none" stroke="black" d="M235.61,-361.18C300.17,-381.15 432.92,-417.28 548.31,-417.28 548.31,-417.28 548.31,-417.28 1089.87,-417.28 1187.61,-417.28 1226.84,-430.07 1304.91,-371.28 1348.32,-338.59 1371.79,-276.9 1382.31,-241.04"/>
<polygon fill="black" stroke="black" points="1385.73,-241.8 1385.06,-231.23 1378.99,-239.92 1385.73,-241.8"/>
</g>
<!-- libGLdispatch.so.0 -->
<g id="node6" class="node">
<title>libGLdispatch.so.0</title>
<ellipse fill="none" stroke="black" cx="549.31" cy="-371.28" rx="96.68" ry="18"/>
<text text-anchor="middle" x="549.31" y="-367.58" font-family="Times,serif" font-size="14.00">libGLdispatch.so.0</text>
</g>
<!-- libGL.so.1&#45;&gt;libGLdispatch.so.0 -->
<g id="edge5" class="edge">
<title>libGL.so.1&#45;&gt;libGLdispatch.so.0</title>
<path fill="none" stroke="black" d="M252.02,-351.92C304.48,-355.35 384.22,-360.56 447.77,-364.71"/>
<polygon fill="black" stroke="black" points="447.61,-368.21 457.82,-365.37 448.07,-361.22 447.61,-368.21"/>
</g>
<!-- libGLX.so.0 -->
<g id="node7" class="node">
<title>libGLX.so.0</title>
<ellipse fill="none" stroke="black" cx="352.78" cy="-325.28" rx="63.89" ry="18"/>
<text text-anchor="middle" x="352.78" y="-321.58" font-family="Times,serif" font-size="14.00">libGLX.so.0</text>
</g>
<!-- libGL.so.1&#45;&gt;libGLX.so.0 -->
<g id="edge6" class="edge">
<title>libGL.so.1&#45;&gt;libGLX.so.0</title>
<path fill="none" stroke="black" d="M248.03,-340.62C260.16,-338.83 273.25,-336.89 285.9,-335.02"/>
<polygon fill="black" stroke="black" points="286.55,-338.46 295.93,-333.54 285.53,-331.54 286.55,-338.46"/>
</g>
<!-- libX11.so.6&#45;&gt;libc.so.6 -->
<g id="edge13" class="edge">
<title>libX11.so.6&#45;&gt;libc.so.6</title>
<path fill="none" stroke="black" d="M607.24,-269.13C678.76,-277.13 805.32,-289.28 914.08,-289.28 914.08,-289.28 914.08,-289.28 1089.87,-289.28 1184.68,-289.28 1291.33,-253.04 1348.26,-230.61"/>
<polygon fill="black" stroke="black" points="1349.64,-233.83 1357.63,-226.87 1347.04,-227.33 1349.64,-233.83"/>
</g>
<!-- libxcb.so.1 -->
<g id="node8" class="node">
<title>libxcb.so.1</title>
<ellipse fill="none" stroke="black" cx="742.6" cy="-201.28" rx="60.39" ry="18"/>
<text text-anchor="middle" x="742.6" y="-197.58" font-family="Times,serif" font-size="14.00">libxcb.so.1</text>
</g>
<!-- libX11.so.6&#45;&gt;libxcb.so.1 -->
<g id="edge12" class="edge">
<title>libX11.so.6&#45;&gt;libxcb.so.1</title>
<path fill="none" stroke="black" d="M591.82,-249.04C620.87,-239.78 659.85,-227.35 690.77,-217.49"/>
<polygon fill="black" stroke="black" points="692.04,-220.76 700.5,-214.38 689.91,-214.09 692.04,-220.76"/>
</g>
<!-- libm.so.6&#45;&gt;libc.so.6 -->
<g id="edge23" class="edge">
<title>libm.so.6&#45;&gt;libc.so.6</title>
<path fill="none" stroke="black" d="M398.62,-84.89C470.61,-70.66 616.55,-45.28 741.6,-45.28 741.6,-45.28 741.6,-45.28 1089.87,-45.28 1186.14,-45.28 1224.25,-18.73 1304.91,-71.28 1346.06,-98.09 1369.93,-152.59 1381.21,-185.73"/>
<polygon fill="black" stroke="black" points="1377.9,-186.84 1384.32,-195.27 1384.55,-184.68 1377.9,-186.84"/>
</g>
<!-- libGLdispatch.so.0&#45;&gt;libc.so.6 -->
<g id="edge8" class="edge">
<title>libGLdispatch.so.0&#45;&gt;libc.so.6</title>
<path fill="none" stroke="black" d="M646.43,-370.46C719.77,-369.91 823.3,-369.28 914.08,-369.28 914.08,-369.28 914.08,-369.28 1089.87,-369.28 1186.25,-369.28 1223.18,-392.36 1304.91,-341.28 1342.42,-317.83 1366.8,-270.87 1379.28,-240.82"/>
<polygon fill="black" stroke="black" points="1382.61,-241.92 1383.06,-231.33 1376.11,-239.32 1382.61,-241.92"/>
</g>
<!-- libGLX.so.0&#45;&gt;libX11.so.6 -->
<g id="edge10" class="edge">
<title>libGLX.so.0&#45;&gt;libX11.so.6</title>
<path fill="none" stroke="black" d="M395.51,-311.76C425.35,-302.1 465.69,-289.03 497.43,-278.76"/>
<polygon fill="black" stroke="black" points="498.55,-282.07 506.98,-275.66 496.39,-275.41 498.55,-282.07"/>
</g>
<!-- libGLX.so.0&#45;&gt;libc.so.6 -->
<g id="edge11" class="edge">
<title>libGLX.so.0&#45;&gt;libc.so.6</title>
<path fill="none" stroke="black" d="M416.8,-325.65C520.5,-326.23 733.64,-327.28 914.08,-327.28 914.08,-327.28 914.08,-327.28 1089.87,-327.28 1188.09,-327.28 1215.92,-317.85 1304.91,-276.28 1326.35,-266.26 1347.68,-250.27 1363.54,-236.9"/>
<polygon fill="black" stroke="black" points="1366.02,-239.38 1371.3,-230.2 1361.44,-234.09 1366.02,-239.38"/>
</g>
<!-- libGLX.so.0&#45;&gt;libGLdispatch.so.0 -->
<g id="edge9" class="edge">
<title>libGLX.so.0&#45;&gt;libGLdispatch.so.0</title>
<path fill="none" stroke="black" d="M402.11,-336.71C425.26,-342.18 453.4,-348.84 478.8,-354.84"/>
<polygon fill="black" stroke="black" points="478.21,-358.3 488.74,-357.19 479.82,-351.49 478.21,-358.3"/>
</g>
<!-- libxcb.so.1&#45;&gt;libc.so.6 -->
<g id="edge16" class="edge">
<title>libxcb.so.1&#45;&gt;libc.so.6</title>
<path fill="none" stroke="black" d="M766.74,-184.71C785.38,-172.18 812.72,-155.6 839.04,-146.28 1034.64,-76.98 1116.28,-28.79 1304.91,-115.28 1336.62,-129.82 1360.93,-162.81 1375.13,-186.5"/>
<polygon fill="black" stroke="black" points="1372.22,-188.46 1380.25,-195.37 1378.29,-184.96 1372.22,-188.46"/>
</g>
<!-- libXau.so.6 -->
<g id="node9" class="node">
<title>libXau.so.6</title>
<ellipse fill="none" stroke="black" cx="1088.87" cy="-238.28" rx="61.99" ry="18"/>
<text text-anchor="middle" x="1088.87" y="-234.58" font-family="Times,serif" font-size="14.00">libXau.so.6</text>
</g>
<!-- libxcb.so.1&#45;&gt;libXau.so.6 -->
<g id="edge14" class="edge">
<title>libxcb.so.1&#45;&gt;libXau.so.6</title>
<path fill="none" stroke="black" d="M799.68,-207.31C860.08,-213.8 956.18,-224.13 1020.61,-231.05"/>
<polygon fill="black" stroke="black" points="1020.35,-234.54 1030.67,-232.13 1021.1,-227.58 1020.35,-234.54"/>
</g>
<!-- libXdmcp.so.6 -->
<g id="node10" class="node">
<title>libXdmcp.so.6</title>
<ellipse fill="none" stroke="black" cx="915.08" cy="-173.28" rx="76.09" ry="18"/>
<text text-anchor="middle" x="915.08" y="-169.58" font-family="Times,serif" font-size="14.00">libXdmcp.so.6</text>
</g>
<!-- libxcb.so.1&#45;&gt;libXdmcp.so.6 -->
<g id="edge15" class="edge">
<title>libxcb.so.1&#45;&gt;libXdmcp.so.6</title>
<path fill="none" stroke="black" d="M796.14,-192.65C810.67,-190.26 826.69,-187.63 842.11,-185.1"/>
<polygon fill="black" stroke="black" points="842.84,-188.53 852.14,-183.45 841.71,-181.62 842.84,-188.53"/>
</g>
<!-- libXau.so.6&#45;&gt;libc.so.6 -->
<g id="edge17" class="edge">
<title>libXau.so.6&#45;&gt;libc.so.6</title>
<path fill="none" stroke="black" d="M1150.73,-237C1193.87,-235.65 1253.06,-232.89 1304.91,-227.28 1314.98,-226.19 1325.69,-224.68 1335.97,-223.06"/>
<polygon fill="black" stroke="black" points="1336.76,-226.48 1346.06,-221.42 1335.63,-219.57 1336.76,-226.48"/>
</g>
<!-- libXdmcp.so.6&#45;&gt;libc.so.6 -->
<g id="edge19" class="edge">
<title>libXdmcp.so.6&#45;&gt;libc.so.6</title>
<path fill="none" stroke="black" d="M957.97,-158.31C1030.99,-134.66 1185.24,-95.7 1304.91,-140.28 1330.34,-149.75 1353.21,-170.71 1368.7,-187.76"/>
<polygon fill="black" stroke="black" points="1366.47,-190.52 1375.7,-195.74 1371.74,-185.91 1366.47,-190.52"/>
</g>
<!-- libbsd.so.0 -->
<g id="node11" class="node">
<title>libbsd.so.0</title>
<ellipse fill="none" stroke="black" cx="1088.87" cy="-173.28" rx="61.19" ry="18"/>
<text text-anchor="middle" x="1088.87" y="-169.58" font-family="Times,serif" font-size="14.00">libbsd.so.0</text>
</g>
<!-- libXdmcp.so.6&#45;&gt;libbsd.so.0 -->
<g id="edge18" class="edge">
<title>libXdmcp.so.6&#45;&gt;libbsd.so.0</title>
<path fill="none" stroke="black" d="M991.43,-173.28C1000.02,-173.28 1008.75,-173.28 1017.28,-173.28"/>
<polygon fill="black" stroke="black" points="1017.55,-176.78 1027.55,-173.28 1017.55,-169.78 1017.55,-176.78"/>
</g>
<!-- libbsd.so.0&#45;&gt;libc.so.6 -->
<g id="edge21" class="edge">
<title>libbsd.so.0&#45;&gt;libc.so.6</title>
<path fill="none" stroke="black" d="M1136.9,-184.68C1152.63,-188.17 1170.31,-191.75 1186.62,-194.28 1235.07,-201.78 1290.54,-206.73 1331.19,-209.69"/>
<polygon fill="black" stroke="black" points="1330.96,-213.19 1341.19,-210.4 1331.46,-206.2 1330.96,-213.19"/>
</g>
<!-- libmd.so.0 -->
<g id="node12" class="node">
<title>libmd.so.0</title>
<ellipse fill="none" stroke="black" cx="1245.76" cy="-167.28" rx="59.29" ry="18"/>
<text text-anchor="middle" x="1245.76" y="-163.58" font-family="Times,serif" font-size="14.00">libmd.so.0</text>
</g>
<!-- libbsd.so.0&#45;&gt;libmd.so.0 -->
<g id="edge20" class="edge">
<title>libbsd.so.0&#45;&gt;libmd.so.0</title>
<path fill="none" stroke="black" d="M1149.76,-170.96C1158.66,-170.61 1167.9,-170.26 1176.95,-169.9"/>
<polygon fill="black" stroke="black" points="1177.22,-173.4 1187.07,-169.51 1176.94,-166.4 1177.22,-173.4"/>
</g>
<!-- libmd.so.0&#45;&gt;libc.so.6 -->
<g id="edge22" class="edge">
<title>libmd.so.0&#45;&gt;libc.so.6</title>
<path fill="none" stroke="black" d="M1287.23,-180.34C1304.59,-185.94 1324.97,-192.52 1342.94,-198.32"/>
<polygon fill="black" stroke="black" points="1342.04,-201.7 1352.64,-201.44 1344.19,-195.04 1342.04,-201.7"/>
</g>
</g>
</svg>
